<svg version="1.1" xmlns="http://www.w3.org/2000/svg" xmlns:xlink="http://www.w3.org/1999/xlink" x="0px" y="0px" viewBox="0 0 256 256" enable-background="new 0 0 256 256" xml:space="preserve">
<g><g><g><path fill="#000000" d="M173.8,204.3c6.1-10.5,15.8-70.2-62.9-97.4c0.5-17-10.2-41.8-18.4-51c0,0-2.9-13.8-3.9-19c-1-5.1-9.9-19.2-17.5-20.6c0,0-3.2,10.9-2.2,15.3c0,0-10.5-10.3-16.9-10.3c0,0-1.4,12.4,0,14.4c0,0-11.6,7.9-10.6,13.2c0,0-35.4,12.2-31.1,17.6c0,0,3,4.6,6.3,6.1c0,0,6.9,13.5,26.9,12.8c15.1,0.6,7.8,3.8,7.3,8.7c-0.6,4.9,0.9,13.1,0.7,16.2c-0.2,3.1-5.5,19.3,0.2,37.7c5.6,18.4-5.3,71.3-12.2,75c-6.9,3.6-11.3,13.8-5.5,13.8h30.6c0,0,4.6-7.4,8.6-7.6c4-0.2,5.2-12.3,5-15.6c-0.2-3.3,2.4-25.6,0-35.1c-2.3-9.5,0.6-11.9,1.9-12.3c1.3-0.4-3.5-11.7-12.4-5.3c-4,2.4-8.9-6.7-8.9-6.7s-0.5-2.6,2.4-4.1c2.5-4.1-6.2-6.7,5.8-16c-0.6-5.8,3.2-11.8,4.7-13c0,0,2,0.5,2.6,1.8c0,0,2.5-6.5,6-6.5c3.5,0,6.9,8.5,7.6,13.5c0,0,24,7.2,27.4,39c0,0,18.7,3.4,24,13.4c0,0,2.8-12.1,6.3-18.7c3-5.6,3.9-20.2-9.5-19.4c-13.3,0.7-6.5,10.8-5.8,12.4c1.7,4-1.3,11.7-9,7.5s-4.9-29.1,14.6-31.6c19.4-2.4,25.3,16.5,21.6,30.8c-3.6,14.3-10.9,23.7-7.8,32.2c3.2,8.5,9.5,32.3-12.9,41.4h9.2c0,0,16.5-10.3,17.2-13.7c0.7-3.4,47.3,38,78,2c9.6-13,0.7-32.3,0-33.7C240.8,189.9,216.1,217.9,173.8,204.3z"/><path fill="#000000" d="M101.6,208.7c-1.1-2.4-7.7-1.4-7.7-1.4c-0.7,10-12.2,29.5-12.2,29.5h7.5c1.3-18.2,21.1-4.6,15.7-11.9C99.4,217.5,102.7,211.1,101.6,208.7z"/></g><g></g><g></g><g></g><g></g><g></g><g></g><g></g><g></g><g></g><g></g><g></g><g></g><g></g><g></g><g></g></g></g>
</svg>